<?xml version="1.0" encoding="UTF-8"?>
<!-- Created with Inkscape (http://www.inkscape.org/) -->
<svg width="210.18mm" height="211.54mm" inkscape:version="1.4.2 (f4327f4, 2025-05-13)" sodipodi:docname="Solid Edge Logo.svg" version="1.1" viewBox="0 0 210.18 211.54" xmlns="http://www.w3.org/2000/svg" xmlns:inkscape="http://www.inkscape.org/namespaces/inkscape" xmlns:sodipodi="http://sodipodi.sourceforge.net/DTD/sodipodi-0.dtd"><sodipodi:namedview bordercolor="#000000" borderopacity="0.25" inkscape:current-layer="layer1" inkscape:cx="396.42889" inkscape:cy="399.90633" inkscape:deskcolor="#d1d1d1" inkscape:document-units="mm" inkscape:pagecheckerboard="0" inkscape:pageopacity="0.0" inkscape:showpageshadow="2" inkscape:window-height="1009" inkscape:window-maximized="1" inkscape:window-width="1920" inkscape:window-x="-8" inkscape:window-y="-4" inkscape:zoom="0.71891835" pagecolor="#ffffff"/><g transform="translate(.18078 -42.673)" inkscape:groupmode="layer" inkscape:label="Ebene 1"><rect x="26.376" y="42.736" width="183.56" height="183.56" ry="0" fill="#2a4ba8" stroke="#000" stroke-width=".12584"/><path d="m-0.11786 69.544v184.61h182.62v-27.855h-156.12v-156.75z" fill="#029696" stroke="#000" stroke-width=".12584"/><g fill="#fff"><path d="m79.054 139.75h15.165c0-11.175-9.7106-23.083-23.083-23.083-13.789 0-24.494 9.6006-24.967 22.917 0 14.258 15.839 18.696 22.225 22.383 6.3869 3.6875 10.003 7.7998 10.003 12.428 0 4.6282-5.9963 6.0564-9.9241 6.0564-3.9278 0-9.3738-1.8263-9.3738-10.005l-14.614-0.15791c0 35.049 49.76 26.819 49.76 5.3618 0-21.457-11.207-21.932-22.52-27.207-11.313-5.2748-10.21-18.954-1.8924-18.954 8.318 0 6.9353 6.8393 9.2203 10.259z" sodipodi:nodetypes="cccczzzcczzzc"/><path d="m103.96 119.69v72.384h41.159v-11.512h-26.493v-20.501h22.236l-0.15791-11.619h-21.92v-16.609h26.809v-12.458z"/><circle cx="103.96" cy="119.69" r=".18877"/></g></g></svg>
